<svg width="720" height="300" viewBox="0 0 720 300" fill="none" xmlns="http://www.w3.org/2000/svg">
<g clip-path="url(#clip0_5_47)">
<mask id="mask0_5_47" style="mask-type:luminance" maskUnits="userSpaceOnUse" x="0" y="0" width="720" height="300">
<path d="M720 0H0V300H720V0Z" fill="white"/>
</mask>
<g mask="url(#mask0_5_47)">
<path d="M307.019 48.6719C305.09 46.0317 301.369 45.4593 298.729 47.4072C296.089 49.3365 295.517 53.0568 297.464 55.697C297.889 56.2417 298.378 56.731 298.923 57.1002H298.951L313.638 68.0303L314.063 67.7257L307.905 50.4628C307.73 49.835 307.416 49.2258 307.01 48.6811L307.019 48.6719Z" fill="white"/>
<path d="M353.943 30.8921L359.306 48.3857H359.814L365.094 30.8367C365.759 28.9996 365.5 26.8487 364.06 24.707C359.14 20.7282 353.583 24.1438 353.583 28.8519C353.583 29.5812 353.721 30.2643 353.952 30.8644V30.9013L353.943 30.8921Z" fill="white"/>
<path d="M265.32 110.551C265.976 110.772 266.668 110.874 267.333 110.837H267.361L285.657 110.957L285.824 110.467L270.629 100.174C270.121 99.7682 269.53 99.4635 268.884 99.2604C265.754 98.2819 262.431 100.008 261.452 103.128C260.455 106.258 262.2 109.581 265.33 110.56L265.32 110.551Z" fill="white"/>
<path d="M575.886 127.195C576.468 127.223 577.105 127.232 577.788 127.232C577.898 126.623 577.981 126.013 577.981 125.395C577.981 124.167 577.788 123.271 577.4 122.69C577.012 122.108 576.468 121.831 575.775 121.831C575.304 121.831 574.824 121.97 574.335 122.238C573.846 122.515 573.329 122.939 572.784 123.521C572.239 124.102 571.658 124.859 571.039 125.801C571.492 126.124 571.999 126.392 572.563 126.595C573.486 126.927 574.603 127.121 575.895 127.186L575.886 127.195Z" fill="white"/>
<path d="M420.382 57.1002H420.418C420.963 56.731 421.48 56.2417 421.877 55.697C423.825 53.0568 423.253 49.3365 420.622 47.4072C417.981 45.4593 414.28 46.0317 412.332 48.6719C411.926 49.2165 411.639 49.8258 411.436 50.4535L405.297 67.7164L405.685 68.0211L420.372 57.091L420.382 57.1002Z" fill="white"/>
<path d="M161.263 118.683C161.9 118.905 162.666 119.007 163.553 119.007C164.079 119.007 164.587 118.979 165.067 118.933C165.196 118.924 165.344 118.887 165.473 118.868V113.68C164.919 113.597 164.374 113.542 163.83 113.542C162.906 113.542 162.103 113.662 161.411 113.892C160.719 114.132 160.183 114.465 159.795 114.899C159.408 115.332 159.214 115.831 159.214 116.394C159.214 116.902 159.389 117.354 159.749 117.751C160.109 118.148 160.608 118.453 161.245 118.674L161.263 118.683Z" fill="white"/>
<path d="M451.242 107.809H451.27C451.926 107.836 452.618 107.753 453.283 107.55C456.412 106.572 458.12 103.248 457.151 100.119C456.172 96.9895 452.858 95.2817 449.728 96.251C449.064 96.4448 448.473 96.7587 447.947 97.1649L432.779 107.421L432.955 107.91L451.252 107.8L451.242 107.809Z" fill="white"/>
<path d="M178.424 118.683C179.061 118.905 179.828 119.007 180.714 119.007C181.24 119.007 181.748 118.979 182.228 118.933C182.357 118.924 182.505 118.887 182.634 118.868V113.68C182.08 113.597 181.535 113.542 180.991 113.542C180.068 113.542 179.265 113.662 178.572 113.892C177.88 114.132 177.344 114.465 176.957 114.899C176.569 115.332 176.375 115.831 176.375 116.394C176.375 116.902 176.55 117.354 176.911 117.751C177.271 118.148 177.769 118.453 178.406 118.674L178.424 118.683Z" fill="white"/>
<path d="M290.218 185.593C287.31 179.86 284.467 176.833 281.679 176.528C277.663 176.094 277.617 180.719 277.626 183.581C277.654 187.68 278.42 191.732 279.186 195.757C279.925 199.607 280.719 203.567 282.86 206.863C284.134 208.783 285.86 210.435 287.928 211.46C290.993 212.965 294.787 212.918 297.815 211.404H297.834C297.603 209.798 297.317 208.109 296.929 206.226C295.295 198.111 293.07 191.243 290.218 185.593Z" fill="white"/>
<path d="M363.71 185.593C360.802 179.86 357.958 176.833 355.17 176.528C351.155 176.094 351.109 180.719 351.118 183.581C351.145 187.68 351.912 191.732 352.678 195.757C353.416 199.607 354.21 203.567 356.352 206.863C357.626 208.783 359.352 210.435 361.42 211.46C364.485 212.965 368.279 212.918 371.307 211.404H371.325C371.095 209.798 370.809 208.109 370.421 206.226C368.787 198.111 366.562 191.243 363.71 185.593Z" fill="white"/>
<path d="M527.725 200.105C523.063 199.431 510.49 197.437 498.24 204.029C496.458 204.989 491.621 207.767 486.867 213.001C481.716 218.67 479.158 224.467 477.894 228.058C492.636 229.581 531.196 227.726 545.32 228.326C550.878 228.473 558.337 229.563 562.436 230.246C558.937 208.229 535.877 201.296 527.716 200.114L527.725 200.105Z" fill="white"/>
<path d="M673.869 112.175C611.27 93.9062 547.111 81.0928 482.279 74.0954C473.324 73.1261 464.351 72.2675 455.378 71.5106C454.224 71.3444 453.052 71.2521 451.87 71.2059C449.821 71.049 447.771 70.8828 445.731 70.7351C451.787 56.9894 447.799 40.3636 435.254 31.0213C429.512 26.7564 422.708 24.5039 415.572 24.5039C406.839 24.5039 398.448 28.0118 392.336 34.0677C390.666 17.4418 376.588 4.40692 359.519 4.40692C342.449 4.40692 328.371 17.4602 326.728 34.0954C320.589 28.0211 312.198 24.5039 303.456 24.5039C296.329 24.5039 289.535 26.7564 283.811 31.0213C276.749 36.274 272.152 43.9546 270.869 52.6783C269.955 58.8911 270.804 65.0855 273.278 70.689C270.73 70.8828 268.164 71.0859 265.616 71.2983C265.579 71.2983 265.542 71.2982 265.496 71.3075C207.31 76.0801 149.548 85.5147 92.8302 99.3989C76.8505 103.313 60.9539 107.569 45.1496 112.175C27.2405 117.557 12.8209 133.546 12.8025 147.236V266.526C12.784 280.216 27.5913 291.451 45.8696 291.608H673.176C691.446 291.451 706.253 280.216 706.244 266.526V147.236C706.225 133.546 691.806 117.557 673.897 112.175H673.869ZM554.543 109.36C555.014 108.898 555.604 108.667 556.324 108.667C557.045 108.667 557.654 108.898 558.125 109.36C558.586 109.821 558.817 110.421 558.817 111.151C558.817 111.88 558.586 112.461 558.125 112.932C557.663 113.403 557.063 113.643 556.324 113.643C555.586 113.643 555.014 113.403 554.543 112.932C554.072 112.461 553.832 111.871 553.832 111.151C553.832 110.43 554.063 109.821 554.543 109.36ZM518.374 107.689C518.845 107.227 519.435 106.996 520.156 106.996C520.876 106.996 521.485 107.227 521.956 107.689C522.417 108.15 522.648 108.75 522.648 109.489C522.648 110.227 522.417 110.8 521.956 111.271C521.494 111.741 520.894 111.981 520.156 111.981C519.417 111.981 518.845 111.741 518.374 111.271C517.903 110.8 517.663 110.209 517.663 109.489C517.663 108.769 517.894 108.15 518.374 107.689ZM514.414 126.392H524.208C524.171 126.29 524.134 126.179 524.097 126.078C523.433 124.518 522.454 123.216 521.189 122.173C519.915 121.139 518.365 120.391 516.537 119.939L517.469 115.249C519.915 115.794 522.039 116.819 523.82 118.333C525.602 119.837 526.987 121.711 527.975 123.927C528.325 124.712 528.584 125.533 528.815 126.382H551.681C552.438 126.382 553.001 126.318 553.38 126.189C553.758 126.059 554.017 125.819 554.173 125.469C554.321 125.118 554.404 124.647 554.404 124.038V116.911H558.734V124.038C558.734 124.638 558.808 125.118 558.946 125.469C559.085 125.819 559.352 126.059 559.749 126.189C560.146 126.318 560.709 126.382 561.448 126.382H562.463C563.257 126.382 563.931 126.262 564.485 126.013C565.039 125.764 565.556 125.385 566.027 124.85C566.498 124.324 566.987 123.668 567.495 122.902C567.965 122.201 568.473 121.499 569.018 120.797C569.562 120.087 570.162 119.44 570.827 118.85C571.483 118.259 572.23 117.779 573.043 117.419C573.864 117.059 574.787 116.883 575.831 116.883C576.874 116.883 577.815 117.105 578.628 117.548C579.44 117.991 580.114 118.6 580.668 119.376C581.212 120.151 581.628 121.047 581.914 122.071C582.2 123.096 582.339 124.204 582.339 125.395C582.339 126.447 582.21 127.583 581.942 128.801C581.674 130.02 581.296 131.146 580.779 132.18C578.914 132.291 577.289 132.281 575.914 132.152C574.538 132.023 573.338 131.774 572.304 131.414C571.279 131.054 570.366 130.601 569.562 130.057C569.138 129.77 568.732 129.447 568.335 129.115C567.531 129.872 566.682 130.444 565.787 130.823C564.845 131.22 563.728 131.414 562.454 131.414H561.439C559.915 131.414 558.632 131.127 557.589 130.555C557.201 130.343 556.86 130.075 556.537 129.789C556.223 130.066 555.891 130.324 555.512 130.527C554.469 131.1 553.186 131.395 551.681 131.414H514.414V126.382V126.392ZM392.909 40.6405C402.196 28.1318 419.883 25.5563 432.392 34.8524C444.864 44.1392 447.448 61.8268 438.161 74.2985C436.149 76.9941 433.777 79.2373 431.136 80.9821L431.016 81.0744L392.669 108.169L434.035 81.4621C436.518 79.6343 439.362 78.148 442.491 77.1972C457.372 72.646 473.177 81.0098 477.728 95.9278C482.297 110.818 473.915 126.576 458.997 131.146C455.821 132.124 452.572 132.494 449.387 132.346H397.118C375.637 132.328 358.226 114.908 358.226 93.4353C358.226 92.8814 358.374 92.3922 358.374 92.3922C358.374 92.3922 358.577 91.7921 358.974 91.3582C359.842 90.4074 363.165 92.2722 367.679 93.2045C370.744 93.8323 372.239 93.4169 375.341 94.7739C376.043 95.0785 376.606 95.3832 376.966 95.5863C378.341 96.4448 379.708 97.2941 381.083 98.1526C381.148 97.1649 381.111 95.6878 380.502 94.0908C379.486 91.4413 377.668 90.7767 376.606 88.0626C376.117 86.8256 375.997 85.2009 375.794 83.6315L376.661 81.2682L388.588 49.0965C389.502 46.1332 390.942 43.2715 392.89 40.6682L392.909 40.6405ZM359.5 9.17961C375.074 9.17961 387.711 21.799 387.711 37.391C387.711 39.0342 387.564 40.6405 387.287 42.1822C387.231 42.5514 387.167 42.9299 387.084 43.3361C386.918 44.0746 386.714 44.8501 386.474 45.6163C386.364 45.9948 386.225 46.3455 386.105 46.7056L386.05 46.9271L377.548 74.3816L376.883 76.514L375.609 80.6313L375.378 81.3606C374.317 77.631 371.704 74.9262 368.427 73.3569C369.682 72.0921 371.224 69.6089 372.221 69.3873C372.544 69.3135 373.301 69.5997 373.947 69.5627C379.855 69.1104 376.966 60.1743 371.981 63.0545C370.024 64.1992 370.661 65.9902 369.996 67.6334C369.775 68.2057 367.568 71.0305 366.497 72.5907C365.621 72.3045 364.725 72.0922 363.802 71.9629C364.291 69.7751 365.067 65.2608 365.962 64.5039C366.876 63.7192 367.854 64.0977 368.538 62.3437C370.772 56.6202 362.186 55.0693 361.669 60.4513C361.512 62.0945 362.537 62.4729 362.879 63.4976C363.405 64.9562 362.122 68.658 361.919 70.3936C361.882 70.6151 361.836 71.2521 361.78 71.7967C360.839 71.7598 359.906 71.8244 358.965 71.9352C358.965 71.6583 358.965 71.3629 358.918 71.0675C358.78 69.3412 357.515 65.3809 357.672 64.0608C357.792 62.9992 359.297 62.5653 358.937 59.9804C358.125 54.1646 348.542 58.3834 352.743 63.2392C353.546 64.1808 354.681 64.0608 355.18 64.8916C355.918 66.1194 356.583 70.4397 357.109 72.3137C356.251 72.5537 355.42 72.8399 354.626 73.2184C353.813 71.9814 351.607 69.0181 351.238 68.3811C350.195 66.4702 350.859 63.95 348.552 62.9345C345.044 61.3744 341.896 65.2885 344.296 68.3165C345.625 70.0243 347.545 69.4427 349.447 69.6089C350.093 70.2182 352.041 73.163 352.955 74.1138C352.512 74.4092 352.059 74.7324 351.635 75.0924C347.951 78.148 346.364 82.7637 345.782 88.2749L343.059 79.4681L332.987 46.9271C332.95 46.8441 332.932 46.761 332.895 46.7056C332.784 46.3363 332.664 45.9948 332.526 45.6163C332.295 44.8408 332.101 44.1023 331.953 43.3361C331.87 42.9299 331.778 42.5514 331.723 42.1822C331.427 40.6036 331.316 39.0342 331.316 37.391C331.316 21.7898 343.936 9.17961 359.509 9.17961H359.5ZM241.263 95.9278C245.833 81.019 261.591 72.646 276.518 77.1972C279.629 78.148 282.473 79.6343 284.974 81.4621L326.267 108.104L288.021 81.0651L287.882 80.9728C285.242 79.2281 282.86 76.9941 280.857 74.2892C271.561 61.8175 274.137 44.1208 286.645 34.8431C299.117 25.547 316.786 28.1226 326.11 40.6313C328.058 43.2346 329.488 46.0963 330.375 49.0596L345.616 90.1489C345.579 90.6843 345.57 91.7552 345.57 93.1953C345.653 114.76 328.261 132.309 306.696 132.318H269.742L269.604 132.328C266.456 132.466 263.206 132.106 259.975 131.127C245.094 126.558 236.721 110.8 241.272 95.9094L241.263 95.9278ZM189.198 108.917H203.165V131.423H198.808V113.948H189.198V108.917ZM173.079 112.581C173.781 111.455 174.75 110.569 176.006 109.904C177.261 109.249 178.738 108.917 180.428 108.917C181.092 108.917 181.803 108.963 182.579 109.055C183.354 109.147 184.12 109.295 184.887 109.498C185.653 109.692 186.345 109.941 186.964 110.246V131.423H182.634V123.567C182.477 123.585 182.311 123.595 182.126 123.604C181.443 123.65 180.76 123.678 180.058 123.678C178.471 123.678 177.086 123.373 175.886 122.755C174.686 122.145 173.744 121.287 173.061 120.179C172.369 119.08 172.027 117.816 172.027 116.403C172.027 114.991 172.378 113.698 173.07 112.572L173.079 112.581ZM155.918 112.581C156.62 111.455 157.589 110.569 158.845 109.904C160.1 109.249 161.577 108.917 163.266 108.917C163.931 108.917 164.642 108.963 165.417 109.055C166.193 109.147 166.959 109.295 167.725 109.498C168.491 109.692 169.184 109.941 169.802 110.246V131.423H165.473V123.567C165.316 123.585 165.15 123.595 164.965 123.604C164.291 123.65 163.599 123.678 162.897 123.678C161.319 123.678 159.925 123.373 158.725 122.755C157.524 122.145 156.583 121.287 155.9 120.179C155.207 119.08 154.866 117.816 154.866 116.403C154.866 114.991 155.217 113.698 155.909 112.572L155.918 112.581ZM146.474 108.944H150.832V131.423H146.474V108.944ZM249.959 226.71C249.655 231.298 247.891 235.046 244.623 237.917C241.355 240.798 237.248 242.154 232.346 242.034C223.391 241.767 210.319 233.689 204.808 224.809C205.177 225.381 203.626 228.215 203.322 228.815C202.685 230.024 201.9 231.197 200.959 232.194C198.992 234.271 196.417 235.637 193.703 236.413C186.742 238.379 177.686 238.573 170.864 237.031C167.097 236.182 162.722 234.603 158.974 232.341C157.94 235.019 156.223 238.711 153.361 242.616C147.545 250.546 140.603 254.395 136.366 256.676C118.088 266.544 98.5352 264.827 96.9197 264.67C93.938 264.375 56.3935 260.054 43.8018 230.486C43.1833 229.037 34.5241 207.896 44.1803 191.114C48.3898 183.802 54.7965 179.482 55.4704 179.039C58.6091 176.962 63.5202 173.842 70.2038 173.971C72.3455 174.017 80.1277 174.377 83.2756 180.137C85.8697 184.882 83.6726 190.283 82.971 191.788C81.3278 195.314 78.6968 197.289 77.3952 198.13C77.4321 197.262 77.4782 193.985 75.1611 191.788C72.0963 188.88 66.5112 190.311 63.7695 192.037C56.8551 196.413 55.3873 210.851 59.9107 220.645C69.5207 241.481 107.481 244.176 123.996 235.416C133.07 230.606 137.686 223.341 137.686 223.341C138.212 222.51 140.566 218.66 142.025 212.734C143.779 205.616 143.022 199.948 141.932 192.738C140.289 181.873 138.628 172.3 137.104 164.204C140.926 164.462 157.949 165.958 161.789 166.226C162.011 167.592 168.381 205.635 168.898 209.983C169.802 217.386 171.999 219.565 174.935 220.534C178.157 221.596 182.939 220.562 183.77 217.239C184.6 213.897 183.446 208.598 181.185 196.653C179.8 189.314 177.381 172.918 176.901 170.26L201.263 172.761C203.146 185.556 204.393 194.123 206.165 202.487C208.048 211.441 210.144 220.054 215.581 221.836C216.07 221.993 218.037 222.639 219.523 221.698C222.256 219.962 221.545 213.925 221.259 211.608C221.102 210.343 220.88 209.309 220.695 208.552C220.446 207.195 220.197 205.838 219.948 204.481C219.348 201.213 218.748 197.954 218.129 194.705L214.289 175.605C213.476 171.838 212.452 166.512 212.175 164.684L240.525 168.026L243.59 183.507C244.965 190.458 246.054 196.329 246.802 201.148C247.531 204.813 248.288 209.586 249.073 215.448C249.802 220.747 250.079 224.504 249.95 226.701L249.959 226.71ZM323.433 242.256C322.076 247.629 319.648 252.835 315.752 256.768C311.893 260.664 306.714 263.147 301.323 264.135C290.209 266.156 277.958 262.344 269.161 255.466C266.65 253.5 264.093 251.054 262.053 248.598C259.855 245.949 258.166 242.875 257.141 239.588C255.452 234.188 255.554 228.243 257.428 222.907C257.815 230.015 262.339 236.459 268.228 240.465C272.023 243.05 276.444 244.776 281.032 245.09C287.679 245.542 294.492 242.921 298.221 237.216C300.179 234.225 301.12 230.597 300.972 227.033C300.945 226.406 299.44 218.457 298.545 218.78C298.028 218.965 297.52 219.168 297.012 219.343C290.209 221.734 282.519 222.805 275.715 219.824C270.075 217.35 265.616 212.678 262.791 207.26C259.8 201.508 258.535 194.982 258.268 188.501C258.055 183.341 258.471 178.014 260.4 173.177C262.191 168.681 266.299 165.93 270.859 164.573C275.004 163.345 279.454 163.419 283.691 164.25C296.837 166.798 307.905 176.353 314.635 187.929C318.826 195.139 321.965 203.345 323.71 211.829C325.796 221.974 325.897 232.517 323.442 242.275L323.433 242.256ZM396.924 242.256C395.567 247.629 393.14 252.835 389.244 256.768C385.385 260.664 380.206 263.147 374.815 264.135C363.7 266.156 351.45 262.344 342.653 255.466C340.142 253.5 337.584 251.054 335.544 248.598C333.347 245.949 331.658 242.875 330.633 239.588C328.944 234.188 329.045 228.243 330.919 222.907C331.307 230.015 335.831 236.459 341.711 240.465C345.505 243.05 349.927 244.776 354.515 245.09C361.162 245.542 367.975 242.921 371.704 237.216C373.661 234.225 374.603 230.597 374.455 227.033C374.427 226.406 372.932 218.457 372.027 218.78C371.51 218.965 371.002 219.168 370.495 219.343C363.691 221.734 356.001 222.805 349.198 219.824C343.557 217.35 339.098 212.678 336.274 207.26C333.283 201.508 332.018 194.982 331.75 188.501C331.538 183.341 331.953 178.014 333.883 173.177C335.674 168.681 339.782 165.93 344.351 164.573C348.496 163.345 352.946 163.419 357.183 164.25C370.329 166.798 381.397 176.353 388.127 187.929C392.318 195.139 395.457 203.345 397.201 211.829C399.288 221.974 399.389 232.517 396.934 242.275L396.924 242.256ZM627.139 248.663C626.022 250.915 624.01 254.885 619.763 258.273C609.969 266.092 597.414 263.525 593.804 262.787C588.108 261.624 584.628 259.436 583.816 258.91C579.717 256.26 577.234 253.011 575.895 250.952C552.161 250.574 528.058 250.435 503.594 250.574C491.769 250.638 480.035 250.767 468.385 250.952C454.594 262.528 437.7 266.396 424.97 260.239C422.043 258.827 417.76 256.122 413.8 250.758C408.464 243.844 406.322 229.683 405.75 223.599L392.143 146.618L423.317 149.923C423.317 149.923 434.441 217.35 437.728 233.117C438.088 234.834 438.771 236.477 439.823 237.88C442.26 241.13 445.288 241.656 446.664 241.859C450.633 242.45 455.111 241.102 457.538 238.647C461.48 234.668 460.179 227.624 459.459 223.636C457.289 211.58 455.074 197.825 452.489 181.19L446.894 146.71L477.395 150.015L482.353 182.094C482.546 183.258 482.731 184.375 482.916 185.501C490.282 181.061 498.498 178.43 506.216 177.257C508.616 176.888 542.606 170.62 561.522 189.812C564.384 192.711 572.35 200.797 574.944 211.755C575.277 213.149 575.951 216.417 577.317 221.254C579.274 228.206 580.262 231.686 582.385 234.723C583.705 236.625 586.881 241.167 592.032 241.73C592.752 241.813 596.084 242.173 598.845 240.004C600.589 238.628 601.291 236.874 601.605 236.08C602.87 232.803 602.186 229.72 601.993 228.861C599.509 217.571 597.728 206.142 595.54 194.788C592.226 177.58 589.862 163.539 586.438 146.627L616.938 149.932C618.895 158.951 621.563 173.5 624.813 192.969C626.816 204.979 628.321 215.716 628.579 217.543C629.281 222.575 629.844 226.895 630.259 230.246C630.638 233.606 630.97 240.917 627.13 248.672L627.139 248.663ZM648.085 263.784L628.358 146.627L658.859 149.932L677.008 263.516L648.085 263.784Z" fill="white"/>
</g>
</g>
<defs>
<clipPath id="clip0_5_47">
<rect width="720" height="300" fill="white"/>
</clipPath>
</defs>
</svg>
